<svg width="14.000000" height="14.000000" viewBox="0 0 14 14" fill="none" xmlns="http://www.w3.org/2000/svg" xmlns:xlink="http://www.w3.org/1999/xlink">
	<desc>
			Created with Pixso.
	</desc>
	<defs/>
	<path id="Vector" d="M0 0L0 2.54541C6.31885 2.54541 11.4546 7.68115 11.4546 14L14 14C14 6.26807 7.73193 0 0 0ZM0 4.45459L0 7C3.86279 7 7 10.1372 7 14L9.54541 14C9.54541 8.73096 5.26904 4.45459 0 4.45459ZM1.90918 10.1816C1.40283 10.1816 0.916992 10.3828 0.559082 10.7412C0.201172 11.0991 0 11.5845 0 12.0908C0 12.5972 0.201172 13.083 0.559082 13.4409C0.916992 13.7988 1.40283 14 1.90918 14C2.41553 14 2.90088 13.7988 3.25879 13.4409C3.61719 13.083 3.81836 12.5972 3.81836 12.0908C3.81836 11.5845 3.61719 11.0991 3.25879 10.7412C2.90088 10.3828 2.41553 10.1816 1.90918 10.1816Z" fill="#FFFFFF" fill-opacity="1.000000" fill-rule="nonzero"/>
</svg>
