<svg width="17.861816" height="17.862061" viewBox="0 0 17.8618 17.8621" fill="none" xmlns="http://www.w3.org/2000/svg" xmlns:xlink="http://www.w3.org/1999/xlink">
	<desc>
			Created with Pixso.
	</desc>
	<defs/>
	<path id="Vector" d="M5.23242 0.0625C4.28174 0.107178 3.63281 0.259033 3.06592 0.481934C2.47852 0.710693 1.98096 1.01782 1.48584 1.51465C0.990723 2.01147 0.685547 2.50952 0.458496 3.09766C0.23877 3.66626 0.0898438 4.31567 0.0478516 5.26636C0.00585938 6.21729 -0.00341797 6.52295 0.000976562 8.94824C0.00585938 11.3735 0.0166016 11.6775 0.0625 12.6304C0.10791 13.5803 0.258789 14.229 0.481934 14.7966C0.710938 15.3838 1.01758 15.8811 1.51514 16.3765C2.01221 16.8718 2.50977 17.176 3.09912 17.4036C3.66699 17.623 4.31689 17.7727 5.26758 17.8145C6.21826 17.856 6.52393 17.8657 8.94873 17.8611C11.373 17.8564 11.6787 17.8457 12.6313 17.8005C13.5835 17.7554 14.229 17.603 14.7969 17.3813C15.3838 17.1516 15.8818 16.8455 16.3765 16.3481C16.8716 15.8508 17.1763 15.3525 17.4033 14.7642C17.6235 14.196 17.7729 13.5464 17.8145 12.5964C17.856 11.6433 17.8657 11.3389 17.8608 8.91382C17.8564 6.48901 17.8457 6.18481 17.8003 5.23242C17.7549 4.28003 17.604 3.6333 17.3809 3.06543C17.1514 2.47827 16.8452 1.9812 16.3481 1.4856C15.8516 0.989746 15.3525 0.685303 14.7646 0.45874C14.1958 0.239014 13.5469 0.0891113 12.5962 0.0480957C11.6455 0.00683594 11.3394 -0.00366211 8.91406 0.000976562C6.48828 0.00561523 6.18506 0.0161133 5.23242 0.0625ZM5.33643 16.2078C4.46582 16.1699 3.99316 16.0251 3.67773 15.9041C3.26074 15.7432 2.96338 15.5488 2.64941 15.238C2.33545 14.927 2.14258 14.6287 1.97949 14.2124C1.85693 13.8972 1.70996 13.425 1.66895 12.5542C1.625 11.613 1.61523 11.3303 1.61035 8.94604C1.60498 6.56152 1.61426 6.2793 1.65527 5.33789C1.69287 4.46777 1.83838 3.99438 1.95898 3.67944C2.12012 3.26172 2.31348 2.96509 2.625 2.65112C2.93701 2.3374 3.23438 2.14404 3.65088 1.9812C3.96582 1.8584 4.43799 1.71216 5.30859 1.67065C6.25049 1.62622 6.53271 1.61719 8.9165 1.61206C11.3008 1.60693 11.5835 1.61572 12.5259 1.65723C13.396 1.69507 13.8696 1.83911 14.1841 1.96094C14.6016 2.12158 14.8984 2.3147 15.2124 2.62695C15.5264 2.93921 15.7197 3.2356 15.8828 3.65308C16.0059 3.96704 16.1519 4.43896 16.1929 5.31006C16.2378 6.25195 16.248 6.53418 16.252 8.91821C16.2563 11.302 16.248 11.5852 16.207 12.5264C16.1689 13.397 16.0244 13.8701 15.9033 14.1855C15.7422 14.6025 15.5483 14.8999 15.2368 15.2136C14.9248 15.5273 14.6279 15.7207 14.2109 15.8835C13.8965 16.0061 13.4238 16.1526 12.5542 16.1941C11.6123 16.2385 11.3301 16.2478 8.94482 16.2529C6.56006 16.2581 6.27881 16.2483 5.33691 16.2078L5.33643 16.2078ZM12.6172 4.15771C12.6177 4.36963 12.6812 4.5769 12.7988 4.75293C12.917 4.92896 13.0845 5.06592 13.2808 5.14673C13.4766 5.22754 13.6924 5.24829 13.8999 5.20679C14.1079 5.16504 14.2988 5.0625 14.4482 4.91235C14.5981 4.76221 14.6997 4.57104 14.7407 4.36304C14.7817 4.15503 14.7598 3.9397 14.6787 3.7439C14.5972 3.5481 14.4595 3.3811 14.2827 3.26367C14.1064 3.14624 13.8989 3.08374 13.687 3.08423C13.4028 3.08472 13.1304 3.19824 12.9297 3.39941C12.7295 3.60083 12.6167 3.87354 12.6172 4.15771ZM4.34521 8.93994C4.35059 11.4729 6.40723 13.5215 8.93994 13.5166C11.4722 13.5117 13.522 11.4548 13.5171 8.92212C13.5122 6.38916 11.4551 4.34009 8.92236 4.34497C6.38965 4.3501 4.34033 6.40747 4.34521 8.93994ZM5.9541 8.93677C5.95264 8.3479 6.12646 7.77197 6.45264 7.28174C6.77881 6.7915 7.24268 6.40894 7.78662 6.18262C8.33008 5.9563 8.92822 5.896 9.50635 6.00977C10.084 6.12354 10.6147 6.40601 11.0322 6.82153C11.4492 7.23706 11.7339 7.76709 11.8501 8.34424C11.9658 8.92163 11.9082 9.52026 11.6841 10.0647C11.4595 10.6091 11.0791 11.0747 10.5898 11.4028C10.1011 11.731 9.52588 11.9067 8.93701 11.908C8.5459 11.9087 8.15869 11.8325 7.79736 11.6836C7.43555 11.5347 7.10693 11.3162 6.83008 11.0403C6.55322 10.7644 6.33301 10.4365 6.18262 10.0757C6.03271 9.7146 5.95459 9.32764 5.9541 8.93677Z" fill="#fff" fill-opacity="1.000000" fill-rule="nonzero"/>
</svg>
