<svg width="17.749023" height="14.415527" viewBox="0 0 17.749 14.4155" fill="none" xmlns="http://www.w3.org/2000/svg" xmlns:xlink="http://www.w3.org/1999/xlink">
	<desc>
			Created with Pixso.
	</desc>
	<defs/>
	<path id="" d="M17.749 1.71191C17.0962 1.99341 16.3862 2.19604 15.6543 2.2749C16.4092 1.82446 16.9834 1.11499 17.2534 0.270264C16.5552 0.687012 15.7671 0.990967 14.9448 1.14868C14.2803 0.439209 13.3345 0 12.2871 0C10.271 0 8.64941 1.63306 8.64941 3.6377C8.64941 3.91919 8.68311 4.20068 8.73926 4.47119C5.72119 4.31348 3.0293 2.87183 1.23877 0.664551C0.92334 1.20508 0.743164 1.82446 0.743164 2.50024C0.743164 3.76147 1.38525 4.87646 2.36523 5.52979C1.76807 5.50732 1.20508 5.33838 0.720703 5.06787C0.720703 5.07935 0.720703 5.10181 0.720703 5.11304C0.720703 6.8811 1.9707 8.34521 3.6377 8.68311C3.3335 8.76196 3.00684 8.80713 2.68018 8.80713C2.44385 8.80713 2.21875 8.78442 1.99316 8.75073C2.45508 10.1924 3.79541 11.2397 5.39453 11.2734C4.14453 12.2532 2.5791 12.8276 0.878418 12.8276C0.574219 12.8276 0.292969 12.8164 0 12.7825C1.61035 13.8186 3.5249 14.4155 5.58594 14.4155C12.2759 14.4155 15.936 8.87451 15.936 4.06567C15.936 3.90796 15.936 3.75024 15.9248 3.59253C16.6343 3.07446 17.2534 2.43262 17.749 1.71191Z" fill="#fff" fill-opacity="1.000000" fill-rule="nonzero"/>
</svg>
