<svg width="17.862305" height="17.862061" viewBox="0 0 17.8623 17.8621" fill="none" xmlns="http://www.w3.org/2000/svg" xmlns:xlink="http://www.w3.org/1999/xlink">
	<desc>
			Created with Pixso.
	</desc>
	<defs/>
	<path id="Vector" d="M0 0L0 3.24756C8.0625 3.24756 14.6143 9.7998 14.6143 17.8621L17.8623 17.8621C17.8623 7.99731 9.86475 0 0 0ZM0 5.68335L0 8.93115C4.92822 8.93115 8.93115 12.9338 8.93115 17.8621L12.1787 17.8621C12.1787 11.1394 6.72266 5.68335 0 5.68335ZM2.43555 12.9905C1.78955 12.9905 1.17041 13.2473 0.713379 13.7041C0.256836 14.1609 0 14.7803 0 15.4263C0 16.0723 0.256836 16.6919 0.713379 17.1487C1.17041 17.6055 1.78955 17.8621 2.43555 17.8621C3.08154 17.8621 3.70117 17.6055 4.1582 17.1487C4.61475 16.6919 4.87158 16.0723 4.87158 15.4263C4.87158 14.7803 4.61475 14.1609 4.1582 13.7041C3.70117 13.2473 3.08154 12.9905 2.43555 12.9905Z" fill="#fff" fill-opacity="1.000000" fill-rule="nonzero"/>
</svg>
