<svg width="21.787598" height="15.310303" viewBox="0 0 21.7876 15.3103" fill="none" xmlns="http://www.w3.org/2000/svg" xmlns:xlink="http://www.w3.org/1999/xlink">
	<desc>
			Created with Pixso.
	</desc>
	<defs/>
	<path id="Subtract" d="M19.4062 0.457031C20.3438 0.708496 21.082 1.44971 21.3325 2.39087C21.7876 4.09644 21.7876 7.65527 21.7876 7.65527C21.7876 7.65527 21.7876 11.2139 21.3325 12.9197C21.082 13.8606 20.3438 14.6018 19.4062 14.8533C17.707 15.3103 10.894 15.3103 10.894 15.3103C10.894 15.3103 4.08057 15.3103 2.38135 14.8533C1.44434 14.6018 0.706055 13.8606 0.455078 12.9197C0 11.2139 0 7.65527 0 7.65527C0 7.65527 0 4.09644 0.455078 2.39087C0.706055 1.44971 1.44434 0.708496 2.38135 0.457031C4.08057 0 10.894 0 10.894 0C10.894 0 17.707 0 19.4062 0.457031ZM14.3579 7.65527L8.66309 10.8862L8.66309 4.42407L14.3579 7.65527Z" fill="#fff" fill-opacity="1.000000" fill-rule="evenodd"/>
</svg>
