<svg width="16.000000" height="14.769287" viewBox="0 0 16 14.7693" fill="none" xmlns="http://www.w3.org/2000/svg" xmlns:xlink="http://www.w3.org/1999/xlink">
	<desc>
			Created with Pixso.
	</desc>
	<defs/>
	<path id="Vector" d="M8 10.4617C7.82715 10.4617 7.68262 10.4006 7.56738 10.2791L3.25977 5.97119C3.25977 5.97119 3.01611 5.56104 3.125 5.2981C3.23389 5.04834 3.42285 4.92334 3.69238 4.92334L6.15381 4.92334L6.15381 0.615234C6.15381 0.44873 6.21484 0.304688 6.33643 0.182617C6.4585 0.0610352 6.60254 0 6.76904 0L9.23096 0C9.39746 0 9.5415 0.0610352 9.66357 0.182617C9.78516 0.304688 9.84619 0.44873 9.84619 0.615234L9.84619 4.92334L12.3076 4.92334C12.5771 4.92334 12.7661 5.04834 12.875 5.2981C12.9839 5.56104 12.939 5.7854 12.7402 5.97119L8.43262 10.2791C8.31738 10.4006 8.17334 10.4617 8 10.4617ZM15.0771 9.84644C15.3335 9.84644 15.5513 9.93628 15.731 10.1157C15.9102 10.2952 16 10.5129 16 10.7695L16 13.8464C16 14.1028 15.9102 14.3208 15.731 14.5002C15.5513 14.6797 15.3335 14.7693 15.0771 14.7693L0.922852 14.7693C0.666504 14.7693 0.44873 14.6797 0.269043 14.5002C0.0898438 14.3208 0 14.1028 0 13.8464L0 10.7695C0 10.5129 0.0898438 10.2952 0.269043 10.1157C0.44873 9.93628 0.666504 9.84644 0.922852 9.84644L5.39404 9.84644L6.69238 11.1541C7.06396 11.5132 7.5 11.6924 8 11.6924C8.5 11.6924 8.93604 11.5129 9.30762 11.1541L10.6152 9.84644L15.0771 9.84644ZM11.6924 13.5386C11.8589 13.5386 12.0034 13.4778 12.125 13.356C12.2471 13.2341 12.3076 13.0898 12.3076 12.9233C12.3076 12.7568 12.2471 12.6123 12.125 12.4907C12.0034 12.3689 11.8589 12.3079 11.6924 12.3079C11.5254 12.3079 11.3813 12.3689 11.2598 12.4907C11.1377 12.6123 11.0771 12.7568 11.0771 12.9233C11.0771 13.0901 11.1377 13.2341 11.2598 13.356C11.3813 13.4778 11.5254 13.5386 11.6924 13.5386ZM14.1538 13.5386C14.3203 13.5386 14.4648 13.4778 14.5864 13.356C14.7085 13.2341 14.7695 13.0898 14.7695 12.9233C14.7695 12.7568 14.7085 12.6123 14.5864 12.4907C14.4648 12.3689 14.3203 12.3079 14.1538 12.3079C13.9873 12.3079 13.8428 12.3689 13.7212 12.4907C13.5996 12.6123 13.5386 12.7568 13.5386 12.9233C13.5386 13.0901 13.5996 13.2341 13.7212 13.356C13.8428 13.4778 13.9873 13.5386 14.1538 13.5386Z" fill="#FFFFFF" fill-opacity="1.000000" fill-rule="evenodd"/>
</svg>
