<svg width="21.000000" height="17.000000" viewBox="0 0 21 17" fill="none" xmlns="http://www.w3.org/2000/svg" xmlns:xlink="http://www.w3.org/1999/xlink">
	<desc>
			Created with Pixso.
	</desc>
	<defs/>
	<path id="Union" d="M4.29297 0.526367C4.29492 0.38623 4.35205 0.252441 4.45264 0.153809C4.55322 0.0551758 4.68945 0 4.83105 0L16.1689 0C16.3105 0 16.4463 0.0551758 16.5469 0.153809C16.647 0.252441 16.7041 0.38623 16.7046 0.526367L16.7046 3.41895L20.6401 4.46582C20.9038 4.53418 21.0566 4.82422 20.9805 5.10693L18.6128 13.8486L18.6123 16.4683C18.6123 16.6089 18.5557 16.7446 18.4546 16.8442C18.354 16.9438 18.2173 17 18.0747 17L2.92334 17C2.78076 17 2.64355 16.9438 2.54297 16.8442C2.44189 16.7446 2.38525 16.6089 2.38525 16.4683L2.38525 11.8965L0.034668 5.50732C-0.0664062 5.23242 0.0605469 4.93213 0.316895 4.83984L4.29297 3.4082L4.29297 0.526367ZM12.4556 2.28809L15.9697 3.22314L15.9697 0.725586L5.02832 0.725586L5.02832 3.14355L11.3984 0.849609C11.6553 0.757324 11.9473 0.906738 12.0483 1.18164L12.4556 2.28809ZM18.457 4.75879C18.3564 4.65918 18.2197 4.60303 18.0771 4.60303L13.3071 4.60303L12.7622 3.12109L20.2197 5.10547L18.6133 11.0371L18.6147 5.13525C18.6147 4.99414 18.5581 4.85889 18.457 4.75879ZM0.79248 5.44141L2.38525 9.77148L2.38525 5.13525C2.38525 5.02637 2.41895 4.92139 2.48047 4.8335L0.79248 5.44141ZM11.4248 1.6123L12.5254 4.60303L3.11963 4.60303L11.4248 1.6123ZM15.812 9.07227C15.7832 9.08398 15.752 9.08984 15.7207 9.08984L11.186 9.08984L11.186 7.90967L15.7207 7.90967C15.7837 7.90967 15.8447 7.93457 15.8892 7.97852C15.9341 8.02295 15.959 8.08301 15.959 8.14551L15.959 8.85352C15.9595 8.88477 15.9531 8.91553 15.9414 8.94385C15.9292 8.97266 15.9116 8.99902 15.8896 9.021C15.8672 9.04297 15.8408 9.06006 15.812 9.07227ZM15.8892 13.5068C15.8442 13.5508 15.7837 13.5757 15.7207 13.5757L11.186 13.5757L11.186 12.395L15.7207 12.395C15.7837 12.395 15.8447 12.4199 15.8892 12.4644C15.9341 12.5088 15.959 12.5688 15.959 12.6313L15.959 13.3398C15.959 13.4028 15.9341 13.4624 15.8892 13.5068ZM16.6055 11.2632C16.5605 11.3076 16.5 11.3325 16.4365 11.3325L11.186 11.3325L11.186 10.1519L16.4365 10.1519C16.5 10.1519 16.5605 10.1768 16.605 10.2212C16.6499 10.2656 16.6753 10.3257 16.6753 10.3882L16.6753 11.0962C16.6753 11.1592 16.6499 11.2192 16.6055 11.2632ZM9.87109 10.8076C9.87012 10.6279 9.85498 10.4482 9.82568 10.271L7.12939 10.271L7.12939 11.335L8.67334 11.335C8.5459 11.9834 7.97021 12.4536 7.12939 12.4536C6.19238 12.4536 5.43359 11.6694 5.43359 10.7422C5.43359 9.81494 6.19385 9.03027 7.12939 9.03027C7.5376 9.02393 7.93262 9.17627 8.22803 9.45508L9.04541 8.64648C8.52686 8.16504 7.83984 7.90137 7.12891 7.91016C6.75 7.90527 6.37402 7.97559 6.02246 8.11572C5.67139 8.25586 5.35156 8.46387 5.08203 8.72754C4.81201 8.99121 4.59814 9.30518 4.45215 9.65088C4.30615 9.99707 4.23096 10.3682 4.23096 10.7432C4.23096 11.1182 4.30615 11.4893 4.45215 11.835C4.59814 12.1812 4.81201 12.4951 5.08203 12.7583C5.35156 13.022 5.67139 13.23 6.02246 13.3706C6.37402 13.5107 6.75 13.5806 7.12891 13.5762C8.78369 13.5762 9.87109 12.4258 9.87109 10.8076Z" fill="#FFFFFF" fill-opacity="1.000000" fill-rule="evenodd"/>
</svg>
