<svg width="26.793457" height="21.689697" viewBox="0 0 26.7935 21.6897" fill="none" xmlns="http://www.w3.org/2000/svg" xmlns:xlink="http://www.w3.org/1999/xlink">
	<desc>
			Created with Pixso.
	</desc>
	<defs/>
	<path id="Union" d="M5.47754 0.671387C5.47949 0.492676 5.55273 0.322021 5.68115 0.196289C5.80957 0.0705566 5.98291 0 6.16357 0L20.6294 0C20.8101 -0.000244141 20.9834 0.0703125 21.1113 0.196289C21.2393 0.322021 21.312 0.49292 21.313 0.671387L21.313 4.36182L26.334 5.698C26.6704 5.78467 26.8657 6.15479 26.7681 6.51562L23.7476 17.6689L23.7466 21.011C23.7466 21.1909 23.6743 21.3635 23.5459 21.491C23.417 21.6182 23.2427 21.6897 23.0605 21.6897L3.72949 21.6897C3.54785 21.6897 3.37305 21.6182 3.24463 21.491C3.11572 21.3635 3.04346 21.1909 3.04346 21.011L3.04346 15.1785L0.0444336 7.02686C-0.0844727 6.67603 0.0776367 6.29272 0.404297 6.17529L5.47754 4.34839L5.47754 0.671387ZM15.8916 2.91919L20.375 4.1123L20.375 0.925781L6.41504 0.925781L6.41504 4.01074L14.543 1.08374C14.8701 0.966309 15.2427 1.15698 15.3721 1.50781L15.8916 2.91919ZM23.5488 6.07178C23.4204 5.94458 23.2456 5.87305 23.064 5.87305L16.9785 5.87305L16.2827 3.98218L25.7979 6.51416L23.748 14.0818L23.75 6.55176C23.75 6.37158 23.6777 6.19897 23.5488 6.07178ZM1.01074 6.94214L3.04346 12.4668L3.04346 6.55176C3.04346 6.41309 3.08643 6.27905 3.16455 6.1665L1.01074 6.94214ZM14.5767 2.05713L15.9805 5.87305L3.97998 5.87305L14.5767 2.05713ZM20.1738 11.5747C20.1367 11.5898 20.0972 11.5977 20.0571 11.5977L14.272 11.5977L14.272 10.0916L20.0571 10.0916C20.1382 10.0916 20.2153 10.1233 20.2725 10.1797C20.3296 10.2361 20.3618 10.3127 20.3618 10.3926L20.3618 11.2959C20.3618 11.3354 20.354 11.3748 20.3389 11.4114C20.3232 11.448 20.3013 11.4812 20.2729 11.5093C20.2446 11.5374 20.2109 11.5596 20.1738 11.5747ZM20.2725 17.2327C20.2153 17.2891 20.1377 17.3208 20.0571 17.3208L14.272 17.3208L14.272 15.8147L20.0571 15.8147C20.1382 15.8147 20.2153 15.8464 20.2725 15.9028C20.3296 15.9592 20.3618 16.0359 20.3618 16.1157L20.3618 17.02C20.3618 17.0999 20.3296 17.1763 20.2725 17.2327ZM21.186 14.3706C21.1289 14.427 21.0513 14.4587 20.9707 14.4587L14.272 14.4587L14.272 12.9524L20.9707 12.9524C21.0513 12.9526 21.1289 12.9844 21.186 13.0408C21.2432 13.0974 21.2749 13.1738 21.2754 13.2537L21.2754 14.1575C21.2754 14.2373 21.2432 14.314 21.186 14.3706ZM12.5938 13.7888C12.5933 13.5596 12.5737 13.3308 12.5361 13.1045L9.09619 13.1045L9.09619 14.4619L11.0664 14.4619C10.9038 15.2893 10.1689 15.8892 9.09619 15.8892C7.90039 15.8892 6.93262 14.8884 6.93262 13.7053C6.93262 12.5222 7.90234 11.5215 9.09619 11.5215C9.61719 11.5132 10.1206 11.7078 10.498 12.0635L11.5405 11.0317C10.8789 10.4177 10.0029 10.0808 9.0957 10.092C8.6123 10.0862 8.13232 10.1755 7.68408 10.3545C7.23584 10.5337 6.82764 10.7991 6.48389 11.1353C6.13965 11.4714 5.8667 11.8718 5.68018 12.3132C5.49414 12.7546 5.39795 13.2283 5.39795 13.7065C5.39795 14.1851 5.49414 14.6587 5.68018 15.1001C5.8667 15.5415 6.13965 15.9419 6.48389 16.2781C6.82764 16.6143 7.23584 16.8796 7.68408 17.0588C8.13232 17.2378 8.6123 17.3271 9.0957 17.3213C11.2065 17.3213 12.5938 15.8538 12.5938 13.7888Z" fill="#fff" fill-opacity="1.000000" fill-rule="evenodd"/>
</svg>
